<?xml version="1.0" standalone="no"?>
<!DOCTYPE svg PUBLIC "-//W3C//DTD SVG 20010904//EN"
 "http://www.w3.org/TR/2001/REC-SVG-20010904/DTD/svg10.dtd">
<svg version="1.0" xmlns="http://www.w3.org/2000/svg"
 width="512.000000pt" height="512.000000pt" viewBox="0 0 512.000000 512.000000"
 preserveAspectRatio="xMidYMid meet">
<metadata>
Created by potrace 1.14, written by Peter Selinger 2001-2017
</metadata>
<g transform="translate(0.000000,512.000000) scale(0.100000,-0.100000)"
fill="#000000" stroke="none">
<path d="M2751 5099 c-116 -30 -204 -75 -326 -170 -50 -38 -96 -36 -152 9
-168 133 -411 181 -632 126 -233 -58 -437 -245 -516 -471 -55 -160 -49 -154
-184 -172 -252 -33 -428 -225 -436 -476 -4 -101 10 -168 53 -254 29 -59 145
-184 181 -196 15 -4 21 -14 21 -33 0 -15 1 -245 3 -512 3 -472 3 -486 24 -525
47 -89 122 -137 217 -137 34 0 67 1 75 3 12 3 15 -98 17 -701 1 -388 5 -736 9
-775 9 -99 36 -197 79 -286 62 -131 165 -259 279 -345 82 -62 221 -129 327
-156 82 -22 99 -23 560 -23 464 0 477 1 560 23 259 70 465 234 589 472 32 62
66 156 76 213 4 20 12 40 19 44 6 4 153 8 326 8 l315 1 68 27 c118 46 202 119
260 224 57 107 57 100 57 917 0 673 -2 756 -17 810 -46 164 -182 299 -344 340
-53 13 -121 16 -362 16 l-297 0 0 194 0 193 81 6 c236 19 429 228 429 468 0
134 -46 251 -134 341 -65 66 -119 99 -208 128 -77 25 -92 39 -108 100 -76 295
-297 516 -577 574 -95 20 -243 18 -332 -5z m1456 -2364 c17 -10 40 -34 50 -52
17 -32 18 -78 18 -756 l0 -722 -23 -33 c-43 -60 -52 -61 -366 -64 -157 -2
-287 0 -288 4 -2 5 -2 376 0 827 l2 819 288 -2 c263 -1 290 -3 319 -21z"/>
</g>
</svg>
