<?xml version="1.0" standalone="no"?>
<!DOCTYPE svg PUBLIC "-//W3C//DTD SVG 20010904//EN"
 "http://www.w3.org/TR/2001/REC-SVG-20010904/DTD/svg10.dtd">
<svg version="1.0" xmlns="http://www.w3.org/2000/svg"
 width="536.000000pt" height="536.000000pt" viewBox="0 0 536.000000 536.000000"
 preserveAspectRatio="xMidYMid meet">
<metadata>
Created by potrace 1.14, written by Peter Selinger 2001-2017
</metadata>
<g transform="translate(0.000000,536.000000) scale(0.100000,-0.100000)"
fill="#000000" stroke="none">
<path d="M2631 4933 c3 -20 -2 -31 -18 -38 -15 -5 -16 -4 -5 6 19 20 14 31 -7
17 -11 -7 -18 -15 -16 -18 2 -3 -1 -12 -7 -20 -8 -12 -9 -12 -4 3 8 25 -11 21
-39 -9 -13 -14 -29 -23 -34 -19 -6 3 -11 1 -11 -5 0 -6 -4 -9 -9 -5 -5 3 -12
1 -15 -4 -4 -5 -1 -13 5 -17 8 -5 9 -3 4 7 -5 8 -4 11 1 6 5 -5 9 -12 9 -15 0
-4 4 -14 9 -22 8 -12 6 -12 -10 1 -10 9 -24 19 -31 23 -15 8 -27 -10 -12 -20
8 -5 9 -3 4 6 -6 9 -4 11 4 5 9 -5 10 -10 2 -18 -7 -7 -15 -6 -27 4 -15 12
-17 12 -9 0 6 -11 3 -13 -14 -8 -18 4 -20 3 -10 -9 10 -12 9 -13 -5 -8 -13 5
-15 2 -10 -12 6 -18 6 -18 -8 0 -12 15 -17 16 -23 6 -6 -9 -4 -11 6 -5 11 6
11 5 3 -4 -10 -10 -17 -10 -35 0 -22 11 -23 11 -10 -5 12 -14 12 -16 -3 -10
-9 3 -16 11 -17 18 0 6 -4 2 -9 -9 -8 -19 -9 -19 -9 3 -1 21 -2 22 -17 8 -17
-18 -28 -21 -19 -6 4 6 -5 10 -20 10 -22 0 -25 3 -21 23 3 12 3 16 0 10 -3 -7
-12 -13 -20 -13 -9 0 -13 -4 -10 -8 3 -5 -1 -9 -9 -9 -13 0 -12 4 2 19 20 22
6 24 -19 2 -16 -16 -18 -15 -24 0 -5 14 -9 15 -15 4 -7 -11 -12 -11 -31 1 -22
13 -22 13 2 -15 14 -16 18 -23 10 -16 -21 18 -34 15 -19 -5 13 -16 12 -17 -3
-4 -10 7 -15 17 -12 22 3 5 0 9 -5 9 -6 0 -11 -10 -11 -22 0 -17 -3 -19 -9 -9
-5 8 -14 10 -22 6 -9 -6 -11 -3 -6 11 6 17 6 18 -6 2 -8 -10 -18 -14 -27 -8
-18 11 -42 1 -36 -16 3 -7 0 -16 -6 -20 -6 -4 -8 -3 -5 2 3 6 2 16 -3 24 -7
11 -12 11 -23 2 -7 -7 -16 -10 -18 -7 -3 2 -6 -6 -6 -18 -1 -12 -7 -23 -13
-25 -5 -2 -8 -7 -5 -12 3 -4 -3 -14 -13 -21 -15 -13 -16 -12 -3 4 7 9 10 17 6
17 -4 0 -2 6 4 14 9 11 9 16 0 22 -8 4 -9 3 -5 -5 4 -6 0 -14 -8 -17 -9 -3
-13 -10 -10 -15 3 -5 -2 -9 -10 -9 -8 0 -18 -4 -21 -10 -3 -5 0 -8 7 -7 7 2
10 2 5 0 -4 -3 -5 -9 -2 -14 4 -5 -2 -6 -11 -2 -11 4 -15 2 -11 -4 4 -6 -1
-17 -11 -24 -15 -13 -16 -12 -3 4 8 10 9 17 3 17 -6 0 -14 -5 -18 -11 -4 -8
-9 -7 -16 2 -7 10 -8 9 -4 -6 3 -11 1 -27 -5 -35 -9 -13 -10 -12 -5 3 5 14 2
16 -13 8 -10 -6 -21 -7 -25 -3 -4 3 -4 -2 0 -12 5 -14 9 -15 15 -4 5 8 9 9 9
2 0 -15 -25 -36 -33 -27 -4 3 -7 0 -7 -8 0 -12 -2 -12 -9 0 -7 12 -14 10 -38
-8 -15 -13 -28 -26 -28 -29 0 -4 -16 -7 -37 -7 -20 0 -40 -4 -44 -8 -5 -4 -1
-5 8 -2 9 4 19 1 23 -5 3 -6 3 -10 -2 -9 -24 4 -43 -2 -37 -13 4 -7 3 -8 -4
-4 -6 4 -9 14 -6 24 3 9 -2 6 -11 -8 -9 -14 -14 -17 -11 -8 3 10 0 20 -6 24
-7 4 -8 3 -4 -4 4 -7 2 -12 -4 -12 -6 0 -8 -4 -5 -10 3 -5 1 -10 -4 -10 -6 0
-11 5 -11 10 0 6 -5 10 -11 10 -6 0 -9 -7 -6 -14 4 -10 1 -13 -8 -9 -8 3 -13
8 -10 12 2 4 -2 8 -10 8 -17 0 -19 -8 -5 -25 7 -9 7 -9 -2 -2 -7 6 -23 10 -36
10 -16 0 -21 4 -16 13 6 9 5 9 -7 0 -12 -10 -18 -10 -28 0 -11 10 -11 8 -3 -9
7 -14 7 -25 0 -35 -8 -12 -9 -12 -5 1 2 8 -2 21 -10 29 -13 12 -14 11 -9 -7 5
-15 1 -24 -13 -31 -12 -7 -18 -19 -16 -30 3 -14 -1 -18 -12 -14 -10 4 -11 8
-3 13 8 5 6 9 -6 14 -10 4 -15 4 -11 0 4 -4 2 -13 -3 -19 -13 -16 -2 -47 14
-38 7 4 7 1 -1 -9 -7 -8 -9 -19 -5 -24 4 -4 -2 -2 -13 6 -19 15 -20 15 -1 -15
l19 -30 -23 20 -23 20 13 -25 c10 -21 10 -23 -1 -12 -19 17 -34 15 -19 -3 11
-13 10 -15 -6 -12 -11 1 -26 7 -34 12 -9 5 -7 -1 4 -14 19 -21 19 -21 1 -15
-12 5 -16 4 -11 -4 3 -6 2 -13 -4 -17 -6 -4 -7 -11 -4 -17 4 -7 2 -8 -4 -4 -7
4 -13 2 -13 -3 -1 -6 -2 -15 -3 -20 0 -5 -5 -13 -10 -18 -5 -4 -6 -3 -3 3 4 7
-1 18 -10 25 -12 10 -14 10 -9 2 4 -8 1 -13 -9 -13 -9 0 -13 -5 -10 -10 4 -6
11 -7 17 -4 6 4 6 -2 -1 -15 -13 -23 -23 -29 -15 -8 3 8 -1 14 -9 14 -9 0 -12
-7 -9 -19 2 -10 -1 -18 -7 -18 -7 0 -9 5 -5 13 5 8 2 8 -9 -2 -20 -16 -23 -26
-4 -15 8 5 8 2 -2 -9 -7 -9 -20 -17 -27 -17 -8 0 -19 -9 -26 -20 -7 -11 -16
-20 -21 -20 -4 0 -5 5 -1 12 4 7 3 8 -5 4 -9 -6 -9 -11 0 -22 10 -12 9 -13 -5
-8 -9 3 -16 1 -16 -6 0 -6 -5 -8 -11 -4 -8 4 -7 9 2 16 11 8 11 9 -1 5 -8 -2
-15 -10 -14 -18 1 -10 -12 -14 -46 -13 -41 1 -46 -2 -46 -20 1 -18 -4 -21 -34
-19 -34 3 -34 2 -11 -11 15 -8 20 -16 12 -20 -6 -4 -11 -3 -11 1 0 5 -11 9
-24 9 -14 0 -22 -4 -20 -8 3 -5 9 -6 14 -3 5 3 11 1 14 -4 3 -5 -8 -8 -25 -7
-29 2 -30 1 -13 -12 18 -14 18 -14 -4 -9 -15 3 -22 1 -22 -10 0 -9 5 -11 13
-7 8 5 7 2 -2 -9 -10 -12 -17 -14 -26 -7 -8 7 -17 4 -30 -10 -10 -11 -21 -17
-25 -15 -4 3 -11 -2 -14 -11 -6 -15 -4 -15 19 0 14 9 25 12 25 7 0 -5 -9 -13
-20 -16 -11 -3 -27 -14 -36 -23 -15 -15 -16 -14 -10 8 3 14 3 19 0 13 -3 -7
-12 -13 -21 -13 -12 0 -12 -2 1 -16 9 -8 16 -17 16 -19 0 -6 -24 0 -39 9 -10
7 -12 6 -6 -4 6 -10 4 -12 -8 -7 -11 4 -14 2 -10 -8 3 -8 10 -12 16 -8 6 3 7
1 3 -6 -6 -9 -11 -9 -22 0 -12 10 -13 8 -8 -7 5 -18 4 -18 -11 1 -17 20 -17
20 -10 -4 6 -18 4 -22 -6 -15 -12 6 -12 5 -1 -8 10 -13 10 -18 1 -24 -8 -5 -9
-3 -4 6 5 8 4 11 -3 6 -6 -4 -9 -13 -5 -22 4 -12 8 -12 22 -2 10 8 9 4 -4 -10
-15 -18 -16 -25 -6 -31 10 -6 9 -10 -4 -14 -10 -4 -14 -3 -9 4 4 8 0 7 -15 0
-25 -14 -28 -23 -5 -14 14 5 15 3 4 -17 -8 -15 -8 -20 -1 -16 6 4 11 2 11 -4
0 -6 5 -8 12 -4 7 4 8 3 4 -4 -4 -6 -14 -9 -24 -6 -16 5 -16 5 0 -9 10 -8 15
-17 11 -20 -3 -4 -13 -1 -21 6 -13 11 -14 9 -2 -10 8 -12 19 -19 25 -16 5 4 1
-4 -9 -16 -27 -29 -28 -49 -5 -56 15 -5 16 -9 6 -20 -6 -7 -16 -10 -22 -7 -5
3 -3 -3 5 -13 9 -11 10 -16 3 -11 -8 4 -13 2 -13 -8 0 -8 6 -17 12 -20 7 -3 0
-3 -17 -1 -25 3 -27 2 -14 -8 14 -10 14 -14 3 -25 -13 -12 -18 -8 -15 11 1 5
-3 6 -9 2 -7 -4 -6 -13 1 -27 10 -18 9 -20 -5 -15 -10 4 -16 1 -16 -9 0 -9 5
-12 13 -8 8 5 7 2 -2 -10 -10 -12 -17 -14 -25 -6 -5 5 -15 10 -20 10 -6 0 -4
-5 4 -10 12 -8 11 -13 -8 -33 -18 -19 -19 -26 -9 -37 10 -10 9 -11 -3 -4 -8 4
-23 9 -32 9 -15 1 -15 -1 -5 -14 10 -12 9 -14 -6 -8 -13 5 -16 3 -10 -6 12
-19 12 -36 0 -31 -15 5 -39 -44 -26 -52 5 -3 9 -10 9 -16 0 -6 -7 -5 -17 3
-15 11 -14 10 1 -9 12 -14 15 -22 6 -22 -6 0 -10 -6 -7 -14 3 -7 0 -19 -6 -25
-9 -9 -7 -11 8 -6 20 7 20 6 1 -9 -18 -15 -25 -31 -28 -63 -1 -7 -6 -13 -12
-13 -5 0 -2 -6 9 -13 14 -11 15 -16 5 -22 -9 -6 -11 -4 -5 5 5 9 4 11 -4 6 -8
-6 -9 -12 -2 -20 7 -9 7 -17 -2 -26 -9 -10 -9 -11 0 -6 7 4 13 2 13 -3 0 -6
-7 -11 -15 -11 -9 0 -12 -6 -8 -17 4 -9 2 -14 -3 -10 -6 3 -11 -3 -11 -14 -2
-18 0 -19 15 -7 15 11 15 11 5 -3 -7 -9 -9 -19 -5 -24 4 -4 -4 -4 -18 -1 -16
5 -20 4 -12 -2 9 -6 12 -23 9 -50 -2 -26 0 -40 7 -39 6 1 10 -6 8 -15 -2 -13
2 -16 14 -11 12 4 15 3 10 -5 -4 -6 -2 -20 4 -31 7 -14 7 -22 -2 -27 -6 -4 -8
-3 -5 3 4 6 0 19 -9 29 -14 18 -15 18 -4 -3 6 -13 9 -23 6 -23 -3 0 1 -12 9
-27 8 -15 12 -30 9 -35 -3 -5 -2 -8 3 -7 21 4 33 -2 33 -17 0 -9 10 -25 22
-35 12 -11 16 -19 8 -19 -10 0 -9 -4 1 -17 10 -11 10 -14 1 -9 -6 4 -12 3 -12
-3 0 -5 5 -13 10 -16 8 -5 7 -12 -1 -22 -10 -12 -10 -17 2 -25 11 -8 10 -9 -4
-4 -10 3 -21 6 -24 6 -4 0 2 9 12 20 10 11 13 20 7 20 -7 0 -12 -3 -12 -8 0
-4 -11 -20 -25 -35 -14 -15 -21 -27 -16 -27 6 0 14 8 20 18 9 15 10 15 8 -5 0
-12 -5 -19 -9 -17 -4 3 -8 -3 -9 -13 0 -10 -3 -13 -6 -5 -2 6 -12 12 -21 12
-15 0 -15 -2 -2 -10 13 -8 13 -10 -2 -10 -10 0 -15 -5 -12 -13 7 -18 -22 -41
-41 -33 -12 4 -14 0 -11 -20 4 -19 2 -23 -7 -15 -12 9 -16 -1 -20 -56 0 -6 -6
-9 -13 -6 -6 2 -15 -1 -20 -8 -4 -7 -3 -10 3 -6 18 11 22 -30 5 -55 -8 -13
-12 -20 -7 -16 4 4 14 0 21 -10 10 -14 10 -23 -2 -50 -7 -18 -9 -30 -5 -27 12
7 33 -20 23 -31 -4 -4 1 -2 11 5 9 8 20 11 24 7 3 -3 1 -6 -5 -6 -7 0 -12 -7
-12 -16 0 -9 -5 -12 -12 -8 -7 4 -8 3 -4 -5 6 -9 11 -9 22 0 11 9 14 7 14 -9
0 -12 5 -24 11 -27 6 -4 8 -14 5 -22 -4 -8 -1 -11 5 -8 6 4 8 13 5 21 -3 8 -1
14 4 14 6 0 10 -7 10 -15 0 -18 11 -19 29 -2 10 8 12 8 7 0 -3 -6 1 -16 10
-21 15 -8 15 -10 0 -15 -10 -4 -15 -3 -11 3 3 6 1 10 -4 10 -13 0 -14 -10 -1
-30 6 -10 10 -11 10 -2 0 6 5 12 11 12 5 0 7 -6 3 -12 -4 -7 -4 -10 1 -6 4 4
14 3 21 -3 8 -7 14 -6 20 2 5 8 3 9 -6 4 -9 -5 -11 -4 -6 3 4 7 2 12 -5 12 -7
0 -9 3 -6 7 4 3 18 -3 30 -15 13 -12 27 -19 32 -15 4 5 5 2 1 -5 -6 -10 -11
-10 -22 -1 -10 8 -14 8 -14 0 0 -11 7 -13 47 -14 13 0 19 -5 16 -13 -2 -7 5
-23 18 -36 l23 -23 -17 27 c-14 23 -14 28 -2 38 11 9 15 9 15 1 0 -6 -5 -11
-10 -11 -6 0 -4 -10 5 -23 8 -13 13 -33 10 -45 -3 -17 2 -25 18 -31 12 -5 25
-7 28 -5 4 2 6 -6 5 -19 0 -12 -8 -25 -16 -29 -13 -5 -12 -7 2 -7 9 -1 18 -11
20 -23 2 -13 9 -22 17 -20 12 3 12 0 2 -12 -10 -12 -9 -16 6 -25 10 -6 12 -11
6 -11 -7 0 -13 -7 -13 -15 0 -8 6 -15 13 -15 8 0 7 -4 -3 -10 -13 -9 -13 -10
0 -11 8 -1 18 -1 21 -1 3 1 6 -5 6 -13 0 -8 -4 -12 -8 -10 -9 6 -34 -24 -25
-32 3 -3 6 -1 6 5 0 7 11 11 24 10 14 -1 22 -6 20 -10 -3 -4 -10 -6 -17 -4 -7
1 -9 1 -4 -1 4 -3 5 -9 2 -14 -4 -5 2 -6 11 -2 12 4 15 3 10 -5 -4 -7 0 -15 9
-18 11 -5 13 -10 5 -19 -9 -11 -7 -12 9 -8 14 3 21 1 21 -8 0 -11 2 -11 10 1
7 11 9 6 6 -17 -3 -33 16 -47 28 -20 3 6 3 1 0 -12 -5 -17 -3 -21 7 -16 9 6
11 3 6 -9 -5 -14 -3 -17 8 -12 9 3 15 0 15 -9 0 -8 -5 -15 -12 -15 -17 0 -3
-11 19 -15 10 -1 17 -9 15 -16 -2 -8 0 -10 5 -6 4 5 8 13 8 18 0 5 3 9 8 9 4
0 9 0 12 0 3 0 1 -9 -5 -20 -9 -17 -7 -20 15 -26 14 -3 23 -10 20 -14 -6 -10
24 -22 37 -14 7 4 7 -2 3 -17 -7 -22 -7 -23 10 -9 11 9 16 10 11 3 -4 -8 -2
-13 5 -13 7 0 9 -3 6 -7 -12 -11 14 -33 39 -33 21 0 28 -9 25 -32 -1 -8 26 -4
35 5 4 4 12 7 18 7 6 0 4 -5 -4 -10 -11 -7 -11 -10 -2 -10 7 0 10 -4 7 -10 -3
-5 -1 -10 4 -10 6 0 11 5 11 12 0 6 6 3 14 -7 8 -11 12 -23 10 -27 -2 -4 1
-10 7 -14 7 -4 9 -3 5 4 -4 7 3 9 21 7 16 -2 28 -5 28 -6 0 -1 12 -2 27 -3 15
-1 25 1 22 5 -2 4 3 9 11 13 8 3 17 1 21 -5 3 -6 12 -3 21 8 8 10 12 12 8 6
-7 -14 0 -15 53 -15 18 0 30 -3 28 -7 -3 -4 1 -8 9 -8 8 0 12 4 9 9 -3 4 1 8
10 8 8 0 16 -3 19 -7 2 -5 2 -2 1 5 -2 6 1 12 7 12 6 0 8 4 4 9 -3 5 -1 13 5
16 6 4 10 3 9 -2 -4 -23 3 -31 26 -28 14 1 28 -2 31 -7 3 -4 10 -5 16 -2 6 4
14 0 19 -7 7 -11 9 -11 9 -1 0 7 4 11 9 7 5 -3 13 0 17 6 5 8 3 9 -6 4 -9 -6
-11 -4 -5 4 5 9 14 6 33 -11 14 -13 22 -18 18 -11 -3 6 -2 14 3 17 5 4 8 -5 6
-20 -1 -16 1 -22 7 -16 12 12 50 -16 42 -30 -9 -13 4 -9 20 8 9 8 17 11 17 5
1 -6 2 -16 3 -22 0 -7 15 -13 31 -15 l30 -3 -27 15 c-16 8 -28 20 -28 27 0 8
3 8 8 2 4 -6 19 -18 35 -28 33 -21 35 -37 5 -31 -21 4 -22 4 -3 -5 15 -7 24
-5 35 8 14 16 17 15 38 -11 26 -31 43 -29 37 2 -3 14 0 18 8 13 7 -4 25 -8 40
-9 23 -2 26 0 17 11 -8 10 -8 15 1 21 7 4 9 3 5 -4 -3 -6 2 -16 12 -21 17 -9
19 -7 16 14 -1 14 1 25 4 26 4 0 15 2 25 4 9 2 15 -1 11 -6 -3 -5 -9 -7 -14
-4 -4 3 -10 -2 -14 -10 -3 -8 0 -17 7 -21 7 -4 9 -4 5 1 -4 4 4 16 17 27 14
11 23 24 20 29 -4 5 2 6 11 2 11 -4 22 1 30 12 14 19 19 11 15 -25 -2 -12 0
-13 7 -1 6 8 15 10 23 6 11 -6 12 -5 2 6 -20 21 -15 29 12 19 19 -7 23 -6 19
4 -3 8 0 17 7 22 7 4 10 3 5 -4 -3 -6 -1 -14 5 -18 6 -3 15 0 20 7 7 12 9 11
9 -1 0 -12 2 -12 9 -2 7 11 9 11 14 -2 4 -9 1 -16 -5 -16 -6 0 -9 -2 -6 -5 3
-3 13 -2 22 1 13 5 14 9 6 14 -7 5 -8 10 -3 13 6 4 16 -5 23 -18 l13 -24 19
22 c12 14 17 17 16 7 -2 -11 6 -15 29 -14 18 0 30 -3 26 -9 -3 -5 4 -6 18 -2
20 5 21 4 9 -5 -12 -10 -11 -11 7 -7 13 3 26 0 30 -6 3 -7 3 -9 -2 -5 -10 9
-35 -10 -35 -26 0 -6 5 -3 11 7 9 15 13 16 25 6 8 -7 14 -8 13 -3 -4 23 2 26
17 8 8 -10 13 -14 10 -7 -4 6 -2 14 3 17 5 4 8 -5 7 -19 -2 -13 1 -22 5 -19 5
3 9 11 9 19 0 8 5 17 11 21 8 4 9 -1 4 -17 -7 -20 -6 -22 6 -12 12 10 17 8 26
-5 12 -20 63 -28 73 -11 5 7 9 5 13 -6 4 -9 3 -13 -2 -10 -5 3 -12 1 -15 -4
-7 -10 13 -9 31 2 6 4 13 2 15 -4 5 -16 69 -19 87 -5 11 8 13 8 7 -1 -4 -8 -2
-13 4 -13 6 0 8 -5 4 -12 -4 -6 -3 -8 4 -4 6 3 9 15 7 26 -2 12 0 18 6 15 5
-4 6 -11 3 -17 -4 -6 1 -8 16 -3 20 6 22 5 17 -16 -6 -23 -5 -23 8 -5 8 10 12
23 8 28 -3 6 5 4 17 -4 12 -7 31 -18 41 -24 10 -6 16 -14 11 -19 -4 -5 -2 -5
5 -1 6 3 14 2 18 -4 4 -6 11 -8 16 -4 5 3 7 9 4 14 -3 5 -1 12 5 15 6 4 10 3
9 -2 -4 -25 2 -33 19 -25 21 11 42 5 42 -12 0 -8 10 -13 23 -12 12 1 28 -3 36
-8 12 -9 12 -7 1 14 -12 22 -11 24 2 13 8 -7 19 -9 23 -5 5 4 5 1 1 -6 -9 -14
10 -17 19 -2 4 6 10 8 15 5 5 -3 12 -1 15 5 5 8 11 7 21 -1 8 -6 14 -8 14 -4
0 4 6 2 14 -4 11 -9 16 -9 22 0 5 8 3 9 -6 4 -9 -6 -11 -4 -5 5 7 11 10 10 19
-1 6 -8 17 -15 25 -17 11 -2 12 0 3 11 -9 11 -6 13 18 9 19 -3 30 0 30 7 0 7
-5 9 -10 6 -16 -10 -11 1 7 16 10 8 14 9 10 2 -4 -6 -3 -14 3 -18 5 -3 10 -2
10 3 0 5 12 17 26 27 15 9 23 12 20 6 -4 -6 -2 -11 4 -11 6 0 8 -5 4 -12 -5
-7 -3 -8 5 -4 7 5 10 14 7 22 -3 7 0 16 6 20 6 4 9 3 6 -2 -3 -5 1 -15 9 -23
13 -12 14 -11 8 7 -5 17 -3 21 9 16 9 -3 16 -1 16 6 0 7 6 6 16 -4 8 -9 21
-16 27 -16 7 0 4 5 -5 11 -10 5 -18 15 -18 22 0 8 3 8 8 2 12 -16 54 -15 48 2
-4 8 -1 11 5 8 6 -4 8 -12 6 -19 -4 -10 9 -12 56 -7 4 1 7 9 7 19 1 13 4 11
15 -8 l15 -25 -4 27 c-3 15 0 31 6 34 6 4 8 3 5 -3 -4 -6 0 -19 8 -29 14 -18
14 -18 10 4 -2 12 0 20 5 17 4 -3 10 -2 13 2 2 5 2 2 1 -4 -5 -18 6 -16 23 4
14 17 14 17 8 -2 -3 -11 -3 -16 1 -12 4 4 14 1 22 -6 9 -7 13 -7 9 -1 -3 6 0
20 8 30 10 13 13 14 10 3 -4 -11 1 -15 19 -15 14 0 22 4 20 8 -5 7 19 13 39 9
5 -1 6 3 2 9 -3 6 -10 8 -14 6 -4 -3 -8 1 -8 8 0 7 6 13 13 13 7 0 11 -4 8 -8
-5 -9 64 -4 74 6 4 3 -6 4 -21 1 -14 -2 -29 0 -33 5 -3 5 -2 9 3 8 4 -1 17 -1
28 0 15 1 17 3 7 10 -11 7 -11 9 2 14 8 3 17 1 20 -6 2 -7 5 -4 5 6 1 9 8 17
16 17 8 0 15 8 16 18 0 11 2 12 6 4 3 -8 9 -9 16 -4 18 13 49 23 43 13 -3 -4
7 -7 22 -6 15 1 31 -3 35 -9 5 -6 6 2 3 19 -3 17 -3 24 0 17 3 -6 11 -9 16 -6
6 4 8 2 4 -4 -3 -6 -2 -14 4 -17 6 -4 10 -3 9 2 -3 19 2 33 12 33 5 0 7 -6 3
-12 -5 -10 -3 -10 7 0 12 11 12 14 -1 23 -11 7 -7 8 13 3 15 -3 26 -2 25 2 -2
5 2 11 7 12 6 2 16 9 24 15 12 9 13 9 7 -1 -4 -6 -2 -12 3 -12 10 0 16 22 12
43 -1 5 3 6 9 2 6 -3 8 -10 6 -14 -3 -4 0 -13 6 -21 8 -13 9 -12 5 2 -6 16 17
33 32 23 4 -2 8 2 8 10 0 10 -5 11 -18 4 -12 -6 -20 -5 -25 3 -4 7 -4 10 1 6
4 -4 16 -3 26 3 15 7 21 6 25 -6 6 -14 8 -14 20 2 7 10 14 14 14 8 0 -5 7 1
16 13 9 13 13 30 10 38 -3 8 -2 13 3 9 5 -3 12 1 14 7 3 7 4 -2 3 -19 -2 -18
1 -30 6 -27 5 3 7 12 4 19 -6 18 5 27 19 15 8 -7 11 0 11 27 -1 30 4 40 24 50
15 7 19 13 10 13 -8 1 -5 5 8 11 13 5 21 13 17 18 -3 5 -1 12 4 15 5 4 13 1
17 -5 5 -8 3 -9 -6 -4 -9 5 -11 4 -6 -4 11 -17 29 -2 21 18 -5 12 -4 13 6 4 9
-9 18 -8 41 8 15 11 28 26 28 32 0 7 -7 3 -15 -7 -13 -17 -17 -18 -28 -6 -9
10 -9 12 1 6 7 -4 15 -1 18 7 3 8 20 14 40 15 24 1 33 -2 29 -11 -4 -7 2 -1
13 13 11 13 18 29 15 34 -3 5 -1 6 4 3 6 -4 22 3 37 14 14 11 26 17 26 13 0
-4 9 1 20 11 26 23 54 29 46 10 -3 -8 -1 -17 3 -20 5 -3 8 8 7 24 -1 22 2 27
13 23 10 -4 12 -1 6 8 -5 9 -4 11 4 6 9 -6 9 -12 -1 -24 -11 -15 -11 -15 3 -5
9 7 18 10 22 7 3 -3 3 5 0 18 -5 22 -5 22 9 4 11 -13 17 -16 22 -7 4 6 12 8
18 5 7 -5 9 -1 5 8 -3 9 2 23 12 32 21 19 45 21 35 4 -4 -7 -3 -9 1 -5 5 4 10
13 11 20 11 69 14 82 23 85 7 2 8 10 1 22 -8 14 -6 20 8 23 15 4 15 5 0 6 -11
1 -15 7 -10 23 4 16 2 19 -8 13 -9 -5 -11 -4 -6 4 4 6 12 9 17 6 5 -4 5 5 -1
20 -13 35 -15 31 33 77 23 23 33 34 22 25 -12 -9 -26 -13 -34 -8 -9 6 -7 10
10 14 18 5 20 9 10 21 -9 11 -9 16 0 22 8 5 10 3 4 -7 -5 -8 -4 -11 1 -6 4 4
9 22 10 40 3 49 3 50 18 44 11 -5 13 0 5 25 -4 17 -6 28 -2 25 3 -4 12 1 20
11 8 9 12 12 9 5 -4 -6 -3 -14 2 -17 5 -3 9 7 9 22 1 60 3 68 13 52 5 -8 12
-11 16 -7 4 3 2 13 -5 20 -9 12 -6 14 21 11 23 -3 29 -1 18 5 -8 6 -18 7 -24
4 -5 -3 -6 -1 -2 5 4 7 17 12 29 12 12 0 18 4 12 8 -16 12 -16 32 1 32 8 0 12
-4 9 -10 -3 -5 -1 -10 5 -10 7 0 10 6 7 14 -3 8 1 20 9 27 8 6 12 14 9 17 -3
3 -11 -3 -19 -13 -10 -14 -15 -15 -21 -5 -5 8 -4 11 2 7 6 -4 13 0 17 8 3 8 1
15 -5 15 -5 0 -4 6 3 14 7 8 18 11 23 8 6 -2 5 1 -2 8 -9 10 -9 16 2 26 18 18
31 18 16 0 -9 -11 -9 -16 0 -22 7 -4 9 -3 5 4 -3 6 -2 13 4 17 6 4 8 11 5 16
-4 5 0 9 7 9 10 0 10 2 -1 9 -17 11 -5 32 14 25 8 -4 12 -11 8 -17 -3 -6 -1
-7 6 -3 9 6 9 11 0 22 -9 11 -9 14 0 14 7 0 9 5 5 13 -4 6 2 4 13 -6 21 -18
21 -18 19 13 -2 29 -1 30 11 14 12 -17 13 -17 13 4 0 15 4 20 15 15 17 -6 17
16 0 30 -5 4 2 5 18 1 17 -4 27 -2 27 6 0 6 -4 8 -10 5 -6 -3 -7 1 -4 10 5 13
9 13 23 3 14 -11 14 -11 4 3 -10 12 -10 18 0 28 9 9 7 13 -10 17 -12 3 -24 13
-27 21 -4 8 -2 11 5 7 8 -5 8 -1 0 13 -6 11 -7 24 -3 28 4 5 1 5 -5 1 -7 -4
-13 -2 -13 3 0 6 -7 11 -16 11 -8 0 -12 5 -9 10 6 9 -8 14 -27 11 -7 -1 -12
22 -9 41 0 4 -7 4 -16 1 -13 -5 -15 -2 -10 12 6 15 5 16 -7 6 -11 -9 -16 -9
-22 0 -4 8 -3 9 4 5 17 -10 15 3 -4 21 -10 10 -12 18 -5 22 6 4 1 12 -12 20
-20 13 -21 13 -9 -2 10 -12 10 -17 1 -23 -7 -4 -9 -3 -5 4 3 6 2 13 -4 17 -6
4 -7 12 -3 18 13 21 13 39 -1 28 -9 -8 -12 -3 -10 19 1 17 -4 31 -13 34 -8 3
-11 1 -8 -4 4 -6 -1 -7 -11 -3 -11 4 -13 8 -6 11 7 2 12 8 12 13 0 6 -5 7 -11
3 -8 -4 -9 1 -4 17 7 21 6 22 -8 11 -12 -10 -17 -10 -23 -1 -4 7 -3 9 2 6 15
-9 34 27 23 44 -8 11 -9 10 -7 -5 2 -10 -4 -21 -12 -24 -8 -3 -12 -1 -8 3 4 5
2 15 -5 23 -10 13 -9 14 2 8 10 -7 12 -3 6 15 -5 19 -4 21 4 9 9 -13 11 -13
11 2 0 9 -6 19 -12 21 -10 4 -10 6 0 6 8 1 10 6 5 14 -12 19 -12 38 0 30 7 -4
8 0 3 12 -5 14 -4 15 7 7 18 -15 37 0 33 25 -4 17 -1 20 11 16 12 -5 14 -3 8
7 -5 8 -4 11 3 7 15 -10 44 4 38 18 -3 8 5 16 20 19 13 4 24 12 24 18 0 9 -3
9 -12 0 -7 -7 -17 -12 -22 -12 -6 0 -4 4 4 10 12 7 11 12 -5 32 -15 17 -16 20
-2 9 14 -11 17 -11 18 0 0 8 2 22 4 32 2 9 0 15 -5 12 -4 -3 -21 2 -36 10 -16
8 -22 15 -13 15 8 0 20 -5 26 -11 8 -8 13 -7 18 3 5 7 5 10 0 6 -4 -4 -14 0
-22 8 -8 8 -19 11 -25 8 -7 -4 -8 -2 -4 5 4 6 13 8 19 4 7 -4 7 0 -1 10 -8 9
-10 22 -6 28 4 8 3 9 -5 5 -8 -6 -10 2 -6 25 3 19 3 31 0 28 -3 -4 -8 -17 -10
-29 -2 -12 -7 -25 -11 -29 -4 -3 -4 2 -1 12 4 10 1 17 -6 17 -8 0 -9 3 -1 8
13 8 15 44 2 36 -5 -3 -6 -10 -3 -15 4 -5 4 -9 1 -9 -3 0 -10 10 -17 21 -7 13
-7 19 -1 15 6 -3 13 -2 16 3 4 5 -5 8 -19 6 -14 -1 -28 2 -31 7 -3 4 -10 5
-16 2 -7 -4 -8 -2 -4 5 6 9 11 9 22 0 8 -6 14 -7 14 -3 0 5 -9 15 -21 22 -12
8 -19 10 -16 5 3 -5 -6 -14 -20 -20 -25 -12 -25 -12 -7 9 19 21 19 21 -3 9
-29 -15 -33 -14 -33 5 0 9 5 12 12 8 7 -5 8 -3 3 6 -6 10 -11 9 -22 -5 -8 -12
-13 -14 -13 -6 0 11 -3 11 -15 1 -13 -11 -15 -10 -9 6 5 18 4 18 -11 -1 -17
-20 -17 -20 -12 2 6 25 -7 40 -19 22 -5 -8 -3 -9 6 -4 9 5 11 4 6 -4 -11 -18
-28 -1 -22 23 5 19 4 20 -8 3 -13 -17 -14 -16 -19 3 -3 11 -1 18 3 15 13 -8
20 9 9 25 -5 9 -9 10 -9 4 0 -7 -7 -14 -15 -18 -13 -5 -14 -2 -4 15 9 17 7 21
-9 26 -13 3 -19 12 -17 24 3 16 1 17 -18 7 -54 -27 -59 -29 -53 -19 7 11 -22
30 -44 29 -34 -2 -51 3 -45 12 3 6 2 10 -2 10 -5 0 -18 7 -29 15 -16 13 -16
14 -1 9 9 -3 17 -1 17 5 0 6 -3 10 -7 10 -5 -1 -14 -1 -22 0 -11 1 -11 4 0 18
13 15 12 15 -10 4 -13 -7 -21 -8 -17 -3 4 6 -2 15 -11 21 -10 6 -13 11 -7 11
5 0 16 -6 23 -12 7 -7 2 3 -11 23 -14 23 -26 32 -30 25 -5 -8 -8 -8 -8 0 0 17
12 25 25 14 19 -16 12 25 -8 44 -9 10 -17 14 -17 9 -1 -4 -14 7 -30 26 -24 28
-27 37 -18 50 7 9 9 13 4 9 -4 -4 -17 2 -29 12 -11 11 -23 17 -28 15 -4 -3 -5
4 -2 15 3 11 0 20 -6 20 -15 0 -14 27 2 34 6 3 3 4 -8 3 -13 -1 -19 3 -17 13
2 8 0 12 -4 8 -4 -4 -14 -2 -22 5 -11 8 -14 8 -9 0 4 -6 3 -14 -3 -18 -9 -6
-14 7 -11 28 0 4 -4 7 -10 7 -6 0 -9 -6 -6 -14 3 -8 -2 -20 -11 -28 -12 -10
-14 -10 -8 0 4 7 1 15 -9 18 -13 5 -13 9 -3 23 8 10 3 8 -11 -4 -21 -17 -23
-18 -18 -3 3 10 1 20 -5 24 -7 4 -8 3 -4 -4 4 -7 3 -12 -3 -12 -5 0 -13 5 -16
10 -4 6 -11 8 -16 4 -5 -3 -7 -9 -4 -14 3 -5 1 -12 -5 -15 -6 -4 -10 -3 -9 2
3 17 -1 33 -8 32 -22 -4 -43 2 -39 10 4 5 3 11 -2 13 -4 1 -17 15 -29 30 -17
23 -22 25 -27 12 -3 -8 -2 -13 3 -10 5 4 7 -3 4 -14 -7 -25 -13 -20 -17 12 -4
38 -15 51 -32 37 -12 -10 -13 -9 -8 5 3 9 10 16 16 16 5 0 2 7 -6 16 -19 19
-21 34 -3 34 21 1 -20 20 -46 22 -14 1 -25 7 -24 13 1 5 -4 9 -10 8 -7 -2 -13
2 -13 7 0 15 16 12 30 -5 7 -8 17 -15 23 -15 5 0 0 8 -11 19 -12 10 -19 21
-16 24 3 3 -4 3 -15 0 -15 -4 -21 -1 -19 8 2 8 -7 15 -21 17 -16 3 -21 0 -16
-9 6 -8 4 -10 -4 -5 -7 5 -10 14 -7 22 4 12 2 12 -14 4 -16 -9 -18 -8 -13 6 5
14 3 15 -18 4 -21 -12 -22 -11 -12 2 10 12 10 15 0 15 -6 0 -21 4 -31 9 -14 5
-17 4 -12 -4 5 -8 2 -10 -8 -6 -9 3 -14 10 -11 14 3 5 0 12 -6 16 -7 4 -9 3
-6 -3 4 -6 0 -14 -9 -17 -8 -3 -13 -2 -10 3 3 5 -1 11 -9 14 -10 4 -12 1 -9
-11 4 -12 -1 -10 -15 7 -14 16 -28 22 -42 18 -15 -4 -19 -2 -15 9 3 8 2 12 -3
9 -5 -3 -12 -2 -15 3 -3 5 -20 7 -38 5 -26 -4 -30 -2 -18 7 13 10 13 11 0 7
-8 -2 -24 3 -34 12 -11 9 -16 10 -12 4 4 -7 3 -13 -3 -13 -5 0 -15 8 -20 18
-6 9 -11 12 -11 6 0 -7 -13 -9 -37 -5 -33 6 -38 10 -34 31 l3 25 -23 -20 c-13
-11 -18 -13 -11 -5 10 12 9 18 -10 33 l-23 18 24 -11 c17 -9 26 -9 35 0 8 8 7
9 -7 4 -12 -4 -17 -2 -15 7 2 9 -6 14 -23 13 -24 0 -25 2 -15 19 8 15 8 21 -2
24 -6 3 -10 9 -6 14 3 5 2 9 -3 8 -21 -4 -43 2 -43 12 0 5 5 7 12 3 7 -4 8 -3
4 4 -4 8 -15 8 -31 2 -14 -5 -27 -6 -30 0 -3 5 -15 7 -27 5 -11 -3 -17 -1 -14
3 4 4 13 7 19 7 5 0 11 6 13 13 1 7 0 8 -3 2 -3 -7 -10 -7 -21 2 -9 8 -13 8
-9 2 4 -7 0 -14 -8 -17 -8 -4 -12 -1 -9 7 3 7 -4 12 -20 12 -14 0 -22 -5 -19
-12 2 -7 -1 -15 -8 -20 -8 -4 -10 -3 -5 4 5 8 0 12 -12 12 -15 0 -19 5 -16 23
l5 22 -10 -22 c-7 -15 -17 -21 -35 -19 -18 2 -26 -2 -26 -13 0 -14 -2 -14 -10
-1 -9 14 -14 7 -11 -13 1 -5 -3 -6 -9 -2 -6 3 -8 10 -5 15 3 4 -2 10 -10 14
-8 3 -17 0 -21 -6 -4 -7 -3 -8 4 -4 7 4 12 2 12 -4 0 -7 -7 -10 -15 -7 -8 4
-17 1 -21 -5 -5 -7 -11 -5 -20 6 -7 10 -17 15 -23 12 -5 -4 -12 -2 -16 4 -4 6
-12 7 -18 4 -7 -4 -9 -4 -5 1 4 4 3 17 -3 29 -9 19 -8 18 8 -2 18 -23 20 -23
34 -5 13 16 12 17 -2 5 -14 -10 -18 -10 -24 5 -5 10 -9 20 -9 23 -3 14 -18 30
-29 30 -6 0 -2 -7 9 -15 16 -12 17 -14 3 -15 -24 0 -31 27 -11 40 15 10 15 11
-2 6 -10 -4 -25 -1 -32 5 -11 9 -14 8 -14 -1 0 -8 -3 -11 -6 -8 -3 4 -1 16 5
27 11 19 10 20 -14 11 -34 -13 -35 -13 -35 4 0 8 -5 18 -10 21 -6 4 -10 3 -9
-2z m375 -175 c3 -4 -1 -5 -10 -4 -8 1 -18 5 -22 8 -3 4 1 5 10 4 8 -1 18 -5
22 -8z m-1112 -13 c-4 -8 -11 -15 -16 -15 -6 0 -5 6 2 15 7 8 14 15 16 15 2 0
1 -7 -2 -15z m1336 -40 c7 -9 8 -15 2 -15 -5 0 -12 7 -16 15 -3 8 -4 15 -2 15
2 0 9 -7 16 -15z m-1593 -158 c0 -8 -6 -14 -14 -14 -9 0 -10 4 -2 14 6 7 12
13 14 13 1 0 2 -6 2 -13z m1753 3 c0 -5 -5 -10 -11 -10 -5 0 -7 5 -4 10 3 6 8
10 11 10 2 0 4 -4 4 -10z m35 -10 c-3 -5 -1 -10 6 -10 7 0 10 -3 6 -6 -9 -9
-28 6 -22 17 4 5 8 9 11 9 3 0 2 -4 -1 -10z m89 -18 c3 -5 -1 -9 -9 -9 -8 0
-12 4 -9 9 3 4 7 8 9 8 2 0 6 -4 9 -8z m60 -38 c3 -8 2 -12 -4 -9 -6 3 -10 10
-10 16 0 14 7 11 14 -7z m233 -86 c-3 -8 -6 -5 -6 6 -1 11 2 17 5 13 3 -3 4
-12 1 -19z m-2592 -18 c3 -5 1 -10 -4 -10 -6 0 -11 5 -11 10 0 6 2 10 4 10 3
0 8 -4 11 -10z m2690 -50 c-3 -5 -1 -18 5 -29 7 -14 7 -22 -2 -27 -7 -4 -8 -3
-4 4 4 7 2 12 -4 12 -6 0 -9 4 -5 9 3 5 0 13 -6 17 -8 4 -7 9 2 15 18 11 22
11 14 -1z m40 -79 c3 -5 1 -12 -5 -16 -5 -3 -10 1 -10 9 0 18 6 21 15 7z m53
-56 c-3 -3 -9 2 -12 12 -6 14 -5 15 5 6 7 -7 10 -15 7 -18z m112 -50 c7 -9 8
-15 2 -15 -5 0 -12 7 -16 15 -3 8 -4 15 -2 15 2 0 9 -7 16 -15z m141 -42 c13
-16 12 -17 -3 -4 -17 13 -22 21 -14 21 2 0 10 -8 17 -17z m-3294 -35 c-3 -8
-6 -5 -6 6 -1 11 2 17 5 13 3 -3 4 -12 1 -19z m-155 -70 c-7 -7 -12 -8 -12 -2
0 14 12 26 19 19 2 -3 -1 -11 -7 -17z m3608 -99 c13 -9 13 -10 -1 -6 -9 3 -22
0 -28 -6 -9 -9 -11 -8 -6 6 8 20 14 21 35 6z m125 -209 c3 -6 -1 -7 -9 -4 -18
7 -21 14 -7 14 6 0 13 -4 16 -10z m37 -5 c0 -5 -5 -11 -11 -13 -6 -2 -11 4
-11 13 0 9 5 15 11 13 6 -2 11 -8 11 -13z m83 -5 c-3 -5 -12 -10 -18 -10 -7 0
-6 4 3 10 19 12 23 12 15 0z m-8 -35 c0 -8 -4 -12 -9 -9 -5 3 -6 10 -3 15 9
13 12 11 12 -6z m43 11 c0 -2 -7 -7 -16 -10 -8 -3 -12 -2 -9 4 6 10 25 14 25
6z m-4246 -38 c-3 -4 -9 -8 -15 -8 -5 0 -9 4 -9 8 0 5 7 9 15 9 8 0 12 -4 9
-9z m4373 -94 c-3 -3 -12 -4 -19 -1 -8 3 -5 6 6 6 11 1 17 -2 13 -5z m-4382
-24 c4 -6 -1 -7 -12 -3 -16 6 -17 5 -3 -13 14 -18 14 -18 -2 -5 -10 7 -15 17
-12 22 7 12 21 11 29 -1z m4573 -305 c-3 -3 -9 2 -12 12 -6 14 -5 15 5 6 7 -7
10 -15 7 -18z m-4782 -54 c-4 -5 0 -11 6 -14 7 -3 3 -4 -9 -4 -17 1 -19 4 -11
14 12 15 22 18 14 4z m4734 5 c0 -3 -4 -8 -10 -11 -5 -3 -10 -1 -10 4 0 6 5
11 10 11 6 0 10 -2 10 -4z m-4764 -178 c-9 -5 -13 -16 -10 -26 5 -14 4 -14 -4
-2 -8 10 -8 18 -1 27 6 7 7 18 3 25 -5 9 -3 9 10 -1 15 -13 15 -16 2 -23z
m-45 -270 c-10 -11 -11 -9 -5 6 6 15 4 17 -6 11 -9 -6 -11 -4 -5 4 5 9 10 10
18 2 8 -8 7 -14 -2 -23z m4999 -53 c7 -9 8 -15 2 -15 -5 0 -12 7 -16 15 -3 8
-4 15 -2 15 2 0 9 -7 16 -15z m-4950 -65 c12 -7 12 -10 1 -10 -8 0 -11 -6 -7
-16 3 -9 2 -12 -5 -9 -6 4 -8 13 -5 20 3 8 0 16 -7 19 -7 2 -7 5 -2 5 6 0 17
-4 25 -9z m5000 -6 c0 -8 -19 -13 -24 -6 -3 5 1 9 9 9 8 0 15 -2 15 -3z
m-4955 -74 c3 -6 -1 -7 -9 -4 -18 7 -21 14 -7 14 6 0 13 -4 16 -10z m-115
-254 c0 -3 -4 -8 -10 -11 -5 -3 -10 -1 -10 4 0 6 5 11 10 11 6 0 10 -2 10 -4z
m4733 -121 c-3 -9 -8 -14 -10 -11 -3 3 -2 9 2 15 9 16 15 13 8 -4z m-4781
-102 c-10 -4 -10 -8 -1 -19 8 -9 8 -14 1 -14 -15 0 -25 18 -17 30 3 6 12 10
18 9 8 0 8 -2 -1 -6z m45 -105 c-3 -8 -6 -5 -6 6 -1 11 2 17 5 13 3 -3 4 -12
1 -19z m269 -180 c4 -7 4 -10 -1 -6 -4 4 -15 2 -24 -5 -14 -11 -14 -10 -2 6
16 20 18 21 27 5z m4339 -108 c3 -6 -1 -7 -9 -4 -18 7 -21 14 -7 14 6 0 13 -4
16 -10z m-72 -65 c-3 -9 -8 -14 -10 -11 -3 3 -2 9 2 15 9 16 15 13 8 -4z
m-340 -188 c-3 -4 -6 -7 -7 -5 -1 2 -8 12 -16 22 -14 18 -14 18 7 6 12 -8 19
-18 16 -23z m-129 -123 c3 -8 2 -12 -4 -9 -6 3 -10 10 -10 16 0 14 7 11 14 -7z
m-3554 2 c0 -2 -7 -7 -16 -10 -8 -3 -12 -2 -9 4 6 10 25 14 25 6z m3455 -56
c-3 -5 -1 -10 4 -10 6 0 11 5 11 11 0 5 5 7 11 4 6 -5 4 -12 -8 -20 -13 -10
-20 -10 -25 -2 -7 11 -2 27 8 27 3 0 2 -4 -1 -10z m-3285 -92 c0 -4 -6 -8 -14
-8 -8 0 -17 4 -20 8 -2 4 4 8 15 8 10 0 19 -4 19 -8z m3040 -46 c0 -5 -7 -9
-15 -9 -8 0 -12 4 -9 9 3 4 9 8 15 8 5 0 9 -4 9 -8z m-2913 -34 c-3 -8 -6 -5
-6 6 -1 11 2 17 5 13 3 -3 4 -12 1 -19z m271 -3 c-3 -3 -9 2 -12 12 -6 14 -5
15 5 6 7 -7 10 -15 7 -18z m118 -2 c-10 -11 -19 -7 -22 10 -2 15 0 16 12 6 8
-6 12 -14 10 -16z m-359 2 c0 -8 -4 -15 -9 -15 -10 0 -11 14 -1 23 9 10 10 9
10 -8z m187 -1 c3 -8 2 -12 -4 -9 -6 3 -10 10 -10 16 0 14 7 11 14 -7z m131
-2 c-3 -3 -11 0 -18 7 -9 10 -8 11 6 5 10 -3 15 -9 12 -12z m-255 -4 c0 -4 -2
-8 -4 -8 -2 0 -11 -3 -19 -6 -8 -3 -17 1 -20 8 -3 10 3 14 19 14 13 0 24 -4
24 -8z m160 2 c0 -5 -2 -10 -4 -10 -3 0 -8 5 -11 10 -3 6 -1 10 4 10 6 0 11
-4 11 -10z m289 -36 c4 3 8 -1 8 -9 0 -11 -4 -12 -14 -4 -7 6 -12 19 -12 28 1
13 2 13 6 -2 2 -9 8 -15 12 -13z m2102 -38 c14 8 11 -2 -4 -14 -10 -8 -13 -6
-14 11 0 12 1 16 4 9 3 -6 9 -10 14 -6z m-1217 -31 c-4 -8 -8 -15 -10 -15 -2
0 -4 7 -4 15 0 8 4 15 10 15 5 0 7 -7 4 -15z m1010 -26 c-3 -5 -10 -7 -15 -3
-5 3 -7 10 -3 15 3 5 10 7 15 3 5 -3 7 -10 3 -15z m-884 -11 c0 -4 -4 -8 -9
-8 -6 0 -12 4 -15 8 -3 5 1 9 9 9 8 0 15 -4 15 -9z m40 0 c0 -4 -4 -8 -9 -8
-6 0 -12 4 -15 8 -3 5 1 9 9 9 8 0 15 -4 15 -9z m194 -44 c3 -8 2 -12 -4 -9
-6 3 -10 10 -10 16 0 14 7 11 14 -7z m121 -32 c-3 -3 -11 0 -18 7 -9 10 -8 11
6 5 10 -3 15 -9 12 -12z"/>
<path d="M2721 4901 c-8 -5 -9 -11 -3 -15 5 -3 12 1 16 9 6 17 6 18 -13 6z"/>
<path d="M2235 4780 c3 -5 8 -10 11 -10 2 0 4 5 4 10 0 6 -5 10 -11 10 -5 0
-7 -4 -4 -10z"/>
<path d="M2846 4775 c-9 -26 -7 -32 5 -12 6 10 9 21 6 23 -2 3 -7 -2 -11 -11z"/>
<path d="M3150 4760 c0 -5 7 -7 15 -4 8 4 15 8 15 10 0 2 -7 4 -15 4 -8 0 -15
-4 -15 -10z"/>
<path d="M3315 4590 c-3 -5 -1 -10 4 -10 6 0 11 5 11 10 0 6 -2 10 -4 10 -3 0
-8 -4 -11 -10z"/>
<path d="M1567 4537 c-3 -8 1 -14 8 -14 7 0 11 6 8 14 -3 7 -6 13 -8 13 -2 0
-5 -6 -8 -13z"/>
<path d="M1226 4434 c-6 -15 -4 -15 11 -3 10 7 20 15 22 16 2 2 -3 3 -11 3 -9
0 -19 -7 -22 -16z"/>
<path d="M1086 4234 c-3 -8 -10 -12 -16 -9 -6 3 -7 -1 -4 -10 4 -9 7 -15 8
-13 1 2 10 13 20 26 11 12 14 22 9 22 -6 0 -14 -7 -17 -16z"/>
<path d="M955 4120 c-3 -5 -1 -10 4 -10 6 0 11 5 11 10 0 6 -2 10 -4 10 -3 0
-8 -4 -11 -10z"/>
<path d="M875 4080 c-3 -5 -1 -10 4 -10 6 0 11 5 11 10 0 6 -2 10 -4 10 -3 0
-8 -4 -11 -10z"/>
<path d="M4307 4039 c7 -7 15 -10 18 -7 3 3 -2 9 -12 12 -14 6 -15 5 -6 -5z"/>
<path d="M746 3998 c3 -4 9 -8 15 -8 5 0 9 4 9 8 0 5 -7 9 -15 9 -8 0 -12 -4
-9 -9z"/>
<path d="M4360 3959 c12 -16 24 -28 27 -25 3 3 -2 12 -11 21 -9 9 -14 21 -11
26 4 5 -1 9 -10 9 -14 0 -13 -5 5 -31z"/>
<path d="M4596 3707 c3 -10 9 -15 12 -12 3 3 0 11 -7 18 -10 9 -11 8 -5 -6z"/>
<path d="M414 3692 c3 -5 0 -13 -6 -15 -9 -4 -10 -6 -1 -6 17 -1 25 16 12 25
-7 4 -9 3 -5 -4z"/>
<path d="M267 3258 c-10 -11 -17 -22 -15 -24 3 -2 15 7 28 21 13 14 19 25 14
24 -5 0 -17 -10 -27 -21z"/>
<path d="M4925 3100 c-3 -5 -2 -10 4 -10 5 0 13 5 16 10 3 6 2 10 -4 10 -5 0
-13 -4 -16 -10z"/>
<path d="M213 2465 c0 -8 4 -12 9 -9 5 3 6 10 3 15 -9 13 -12 11 -12 -6z"/>
<path d="M118 2298 c10 -13 10 -17 0 -21 -9 -4 -9 -6 -1 -6 20 -2 24 16 5 30
-15 13 -16 12 -4 -3z"/>
<path d="M33 2125 c0 -8 4 -12 9 -9 5 3 6 10 3 15 -9 13 -12 11 -12 -6z"/>
<path d="M4897 2129 c7 -7 15 -10 18 -7 3 3 -2 9 -12 12 -14 6 -15 5 -6 -5z"/>
<path d="M38 2053 c7 -3 16 -2 19 1 4 3 -2 6 -13 5 -11 0 -14 -3 -6 -6z"/>
<path d="M4834 2000 c0 -13 4 -16 10 -10 7 7 7 13 0 20 -6 6 -10 3 -10 -10z"/>
<path d="M4775 1851 c-3 -8 1 -21 9 -27 9 -6 12 -15 8 -19 -4 -5 -1 -5 7 0 12
7 11 10 -4 22 -18 13 -18 13 -1 26 16 12 16 14 3 14 -9 0 -19 -7 -22 -16z"/>
<path d="M4765 1681 c-3 -5 -2 -12 3 -15 5 -3 9 1 9 9 0 17 -3 19 -12 6z"/>
<path d="M383 1665 c0 -8 4 -12 9 -9 5 3 6 10 3 15 -9 13 -12 11 -12 -6z"/>
<path d="M390 1603 c0 -6 5 -15 11 -19 8 -4 7 -9 -2 -15 -12 -7 -12 -9 0 -9 7
0 11 -6 8 -14 -4 -10 -1 -13 8 -9 8 3 12 10 8 17 -4 6 -8 13 -8 16 -1 12 -24
44 -25 33z"/>
<path d="M4707 1593 c-11 -11 -8 -20 7 -20 8 0 12 6 9 14 -6 15 -7 15 -16 6z"/>
<path d="M4536 1501 c-19 -21 -9 -35 14 -20 12 7 12 9 1 9 -11 0 -11 3 -1 15
18 22 6 18 -14 -4z"/>
<path d="M4495 1480 c-3 -5 -1 -10 4 -10 6 0 11 5 11 10 0 6 -2 10 -4 10 -3 0
-8 -4 -11 -10z"/>
<path d="M4461 1451 c-7 -5 -9 -11 -5 -14 5 -3 15 1 22 9 14 16 5 18 -17 5z"/>
<path d="M507 1339 c7 -7 15 -10 18 -7 3 3 -2 9 -12 12 -14 6 -15 5 -6 -5z"/>
<path d="M4265 1320 c-3 -6 1 -7 9 -4 18 7 21 14 7 14 -6 0 -13 -4 -16 -10z"/>
<path d="M4220 1290 c-8 -5 -10 -10 -5 -10 6 0 17 5 25 10 8 5 11 10 5 10 -5
0 -17 -5 -25 -10z"/>
<path d="M1875 969 c-4 -6 -5 -12 -2 -15 2 -3 7 2 10 11 7 17 1 20 -8 4z"/>
<path d="M2090 959 c0 -5 5 -7 10 -4 6 3 10 8 10 11 0 2 -4 4 -10 4 -5 0 -10
-5 -10 -11z"/>
<path d="M1613 892 c1 -14 5 -18 11 -12 7 7 6 14 -1 21 -9 9 -12 7 -10 -9z"/>
<path d="M1687 883 c3 -7 9 -13 13 -13 4 0 12 6 18 13 9 10 6 13 -12 13 -16 0
-22 -5 -19 -13z"/>
<path d="M2630 856 c0 -2 7 -7 16 -10 8 -3 12 -2 9 4 -6 10 -25 14 -25 6z"/>
<path d="M3140 840 c-9 -6 -10 -10 -3 -10 6 0 15 5 18 10 8 12 4 12 -15 0z"/>
<path d="M2769 803 c-12 -16 -12 -17 2 -6 9 7 20 9 24 5 5 -4 5 -1 1 6 -9 16
-11 15 -27 -5z"/>
<path d="M2945 800 c-3 -5 -1 -10 4 -10 6 0 11 5 11 10 0 6 -2 10 -4 10 -3 0
-8 -4 -11 -10z"/>
</g>
</svg>
